solid OpenSCAD_Model
  facet normal 0 0 -1
    outer loop
      vertex -15 0 0
      vertex -12.9904 7.5 0
      vertex -12.9904 -7.5 0
    endloop
  endfacet
  facet normal 0 0 -1
    outer loop
      vertex -12.9904 -7.5 0
      vertex -12.9904 7.5 0
      vertex -7.5 12.9904 0
    endloop
  endfacet
  facet normal 0 0 -1
    outer loop
      vertex -12.9904 -7.5 0
      vertex -7.5 12.9904 0
      vertex 0 15 0
    endloop
  endfacet
  facet normal 0 0 -1
    outer loop
      vertex -12.9904 -7.5 0
      vertex 0 15 0
      vertex 7.5 12.9904 0
    endloop
  endfacet
  facet normal 0 0 -1
    outer loop
      vertex -12.9904 -7.5 0
      vertex 7.5 12.9904 0
      vertex 12.9904 7.5 0
    endloop
  endfacet
  facet normal 0 0 -1
    outer loop
      vertex -12.9904 -7.5 0
      vertex 12.9904 7.5 0
      vertex 15 0 0
    endloop
  endfacet
  facet normal 0 0 -1
    outer loop
      vertex -12.9904 -7.5 0
      vertex 15 0 0
      vertex 12.9904 -7.5 0
    endloop
  endfacet
  facet normal 0 0 -1
    outer loop
      vertex -12.9904 -7.5 0
      vertex 12.9904 -7.5 0
      vertex 7.5 -12.9904 0
    endloop
  endfacet
  facet normal 0 0 -1
    outer loop
      vertex -12.9904 -7.5 0
      vertex 7.5 -12.9904 0
      vertex 0 -15 0
    endloop
  endfacet
  facet normal 0 0 -1
    outer loop
      vertex -12.9904 -7.5 0
      vertex 0 -15 0
      vertex -7.5 -12.9904 0
    endloop
  endfacet
  facet normal -0.965926 0.258819 0
    outer loop
      vertex -15 0 0
      vertex -15 0 2
      vertex -12.9904 7.5 0
    endloop
  endfacet
  facet normal -0.965926 0.258819 0
    outer loop
      vertex -12.9904 7.5 0
      vertex -15 0 2
      vertex -12.9904 7.5 2
    endloop
  endfacet
  facet normal -0.965926 -0.258819 0
    outer loop
      vertex -15 0 0
      vertex -12.9904 -7.5 0
      vertex -15 0 2
    endloop
  endfacet
  facet normal -0.965926 -0.258819 0
    outer loop
      vertex -15 0 2
      vertex -12.9904 -7.5 0
      vertex -12.9904 -7.5 2
    endloop
  endfacet
  facet normal -0.707107 -0.707107 0
    outer loop
      vertex -12.9904 -7.5 2
      vertex -12.9904 -7.5 0
      vertex -7.5 -12.9904 0
    endloop
  endfacet
  facet normal -0.707107 -0.707107 0
    outer loop
      vertex -7.5 -12.9904 2
      vertex -12.9904 -7.5 2
      vertex -7.5 -12.9904 0
    endloop
  endfacet
  facet normal -0.258819 -0.965926 0
    outer loop
      vertex -7.5 -12.9904 2
      vertex -7.5 -12.9904 0
      vertex 0 -15 0
    endloop
  endfacet
  facet normal -0.258819 -0.965926 0
    outer loop
      vertex 0 -15 2
      vertex -7.5 -12.9904 2
      vertex 0 -15 0
    endloop
  endfacet
  facet normal 0.258819 -0.965926 0
    outer loop
      vertex 0 -15 2
      vertex 0 -15 0
      vertex 7.5 -12.9904 0
    endloop
  endfacet
  facet normal 0.258819 -0.965926 0
    outer loop
      vertex 7.5 -12.9904 2
      vertex 0 -15 2
      vertex 7.5 -12.9904 0
    endloop
  endfacet
  facet normal 0.707107 -0.707107 0
    outer loop
      vertex 7.5 -12.9904 2
      vertex 7.5 -12.9904 0
      vertex 12.9904 -7.5 0
    endloop
  endfacet
  facet normal 0.707107 -0.707107 0
    outer loop
      vertex 12.9904 -7.5 2
      vertex 7.5 -12.9904 2
      vertex 12.9904 -7.5 0
    endloop
  endfacet
  facet normal 0.965926 -0.258819 0
    outer loop
      vertex 12.9904 -7.5 2
      vertex 12.9904 -7.5 0
      vertex 15 0 0
    endloop
  endfacet
  facet normal 0.965926 -0.258819 0
    outer loop
      vertex 15 0 2
      vertex 12.9904 -7.5 2
      vertex 15 0 0
    endloop
  endfacet
  facet normal 0.965926 0.258819 0
    outer loop
      vertex 15 0 0
      vertex 12.9904 7.5 0
      vertex 12.9904 7.5 2
    endloop
  endfacet
  facet normal 0.965926 0.258819 0
    outer loop
      vertex 15 0 2
      vertex 15 0 0
      vertex 12.9904 7.5 2
    endloop
  endfacet
  facet normal 0.707107 0.707107 0
    outer loop
      vertex 7.5 12.9904 0
      vertex 7.5 12.9904 2
      vertex 12.9904 7.5 0
    endloop
  endfacet
  facet normal 0.707107 0.707107 0
    outer loop
      vertex 12.9904 7.5 0
      vertex 7.5 12.9904 2
      vertex 12.9904 7.5 2
    endloop
  endfacet
  facet normal 0.258819 0.965926 0
    outer loop
      vertex 0 15 0
      vertex 0 15 2
      vertex 7.5 12.9904 0
    endloop
  endfacet
  facet normal 0.258819 0.965926 0
    outer loop
      vertex 7.5 12.9904 0
      vertex 0 15 2
      vertex 7.5 12.9904 2
    endloop
  endfacet
  facet normal -0.258819 0.965926 0
    outer loop
      vertex -7.5 12.9904 0
      vertex -7.5 12.9904 2
      vertex 0 15 0
    endloop
  endfacet
  facet normal -0.258819 0.965926 0
    outer loop
      vertex 0 15 0
      vertex -7.5 12.9904 2
      vertex 0 15 2
    endloop
  endfacet
  facet normal -0.707107 0.707107 0
    outer loop
      vertex -12.9904 7.5 0
      vertex -12.9904 7.5 2
      vertex -7.5 12.9904 0
    endloop
  endfacet
  facet normal -0.707107 0.707107 0
    outer loop
      vertex -7.5 12.9904 0
      vertex -12.9904 7.5 2
      vertex -7.5 12.9904 2
    endloop
  endfacet
  facet normal -0.64782 0.173583 0.741754
    outer loop
      vertex -12.9904 7.5 2
      vertex -15 0 2
      vertex -8.03239 4.6375 7
    endloop
  endfacet
  facet normal -0.474237 0.474237 0.741754
    outer loop
      vertex -7.5 12.9904 2
      vertex -12.9904 7.5 2
      vertex -8.03239 4.6375 7
    endloop
  endfacet
  facet normal -0.474237 0.474237 0.741754
    outer loop
      vertex -4.6375 8.03239 7
      vertex -7.5 12.9904 2
      vertex -8.03239 4.6375 7
    endloop
  endfacet
  facet normal -0.64782 0.173583 0.741754
    outer loop
      vertex -8.03239 4.6375 7
      vertex -15 0 2
      vertex -9.275 0 7
    endloop
  endfacet
  facet normal -0.64782 -0.173583 0.741754
    outer loop
      vertex -9.275 0 7
      vertex -15 0 2
      vertex -12.9904 -7.5 2
    endloop
  endfacet
  facet normal -0.64782 -0.173583 0.741754
    outer loop
      vertex -9.275 0 7
      vertex -12.9904 -7.5 2
      vertex -8.03239 -4.6375 7
    endloop
  endfacet
  facet normal -0.474237 -0.474237 0.741754
    outer loop
      vertex -8.03239 -4.6375 7
      vertex -12.9904 -7.5 2
      vertex -7.5 -12.9904 2
    endloop
  endfacet
  facet normal -0.474237 -0.474237 0.741754
    outer loop
      vertex -4.6375 -8.03239 7
      vertex -8.03239 -4.6375 7
      vertex -7.5 -12.9904 2
    endloop
  endfacet
  facet normal -0.173583 -0.64782 0.741754
    outer loop
      vertex -4.6375 -8.03239 7
      vertex -7.5 -12.9904 2
      vertex 0 -15 2
    endloop
  endfacet
  facet normal -0.173583 -0.64782 0.741754
    outer loop
      vertex 0 -9.275 7
      vertex -4.6375 -8.03239 7
      vertex 0 -15 2
    endloop
  endfacet
  facet normal 0.173583 -0.64782 0.741754
    outer loop
      vertex 0 -9.275 7
      vertex 0 -15 2
      vertex 7.5 -12.9904 2
    endloop
  endfacet
  facet normal 0.173583 -0.64782 0.741754
    outer loop
      vertex 4.6375 -8.03239 7
      vertex 0 -9.275 7
      vertex 7.5 -12.9904 2
    endloop
  endfacet
  facet normal 0.474237 -0.474237 0.741754
    outer loop
      vertex 8.03239 -4.6375 7
      vertex 4.6375 -8.03239 7
      vertex 7.5 -12.9904 2
    endloop
  endfacet
  facet normal 0.474237 -0.474237 0.741754
    outer loop
      vertex 12.9904 -7.5 2
      vertex 8.03239 -4.6375 7
      vertex 7.5 -12.9904 2
    endloop
  endfacet
  facet normal 0.64782 -0.173583 0.741754
    outer loop
      vertex 15 0 2
      vertex 8.03239 -4.6375 7
      vertex 12.9904 -7.5 2
    endloop
  endfacet
  facet normal 0.64782 -0.173583 0.741754
    outer loop
      vertex 9.275 0 7
      vertex 8.03239 -4.6375 7
      vertex 15 0 2
    endloop
  endfacet
  facet normal 0.64782 0.173583 0.741754
    outer loop
      vertex 12.9904 7.5 2
      vertex 9.275 0 7
      vertex 15 0 2
    endloop
  endfacet
  facet normal 0.474237 0.474237 0.741754
    outer loop
      vertex 7.5 12.9904 2
      vertex 4.6375 8.03239 7
      vertex 8.03239 4.6375 7
    endloop
  endfacet
  facet normal 0.474237 0.474237 0.741754
    outer loop
      vertex 12.9904 7.5 2
      vertex 7.5 12.9904 2
      vertex 8.03239 4.6375 7
    endloop
  endfacet
  facet normal 0.64782 0.173583 0.741754
    outer loop
      vertex 12.9904 7.5 2
      vertex 8.03239 4.6375 7
      vertex 9.275 0 7
    endloop
  endfacet
  facet normal 0.173583 0.64782 0.741754
    outer loop
      vertex 7.5 12.9904 2
      vertex 0 15 2
      vertex 4.6375 8.03239 7
    endloop
  endfacet
  facet normal 0.173583 0.64782 0.741754
    outer loop
      vertex 0 15 2
      vertex 0 9.275 7
      vertex 4.6375 8.03239 7
    endloop
  endfacet
  facet normal -0.173583 0.64782 0.741754
    outer loop
      vertex 0 15 2
      vertex -7.5 12.9904 2
      vertex 0 9.275 7
    endloop
  endfacet
  facet normal -0.173583 0.64782 0.741754
    outer loop
      vertex 0 9.275 7
      vertex -7.5 12.9904 2
      vertex -4.6375 8.03239 7
    endloop
  endfacet
  facet normal 0 0 1
    outer loop
      vertex -8.03239 4.6375 7
      vertex -9.275 0 7
      vertex -8.03239 -4.6375 7
    endloop
  endfacet
  facet normal 0 0 1
    outer loop
      vertex -7.275 0 7
      vertex -8.03239 4.6375 7
      vertex -8.03239 -4.6375 7
    endloop
  endfacet
  facet normal 0 0 1
    outer loop
      vertex -3.6375 -6.30033 7
      vertex -7.275 0 7
      vertex -4.6375 -8.03239 7
    endloop
  endfacet
  facet normal 0 0 1
    outer loop
      vertex 7.275 0 7
      vertex 3.6375 -6.30033 7
      vertex 8.03239 -4.6375 7
    endloop
  endfacet
  facet normal 0 0 1
    outer loop
      vertex 3.6375 6.30033 7
      vertex 7.275 0 7
      vertex 9.275 0 7
    endloop
  endfacet
  facet normal 0 0 1
    outer loop
      vertex -4.6375 8.03239 7
      vertex -8.03239 4.6375 7
      vertex 0 9.275 7
    endloop
  endfacet
  facet normal 0 0 1
    outer loop
      vertex 0 -9.275 7
      vertex -3.6375 -6.30033 7
      vertex -4.6375 -8.03239 7
    endloop
  endfacet
  facet normal 0 0 1
    outer loop
      vertex -4.6375 -8.03239 7
      vertex -7.275 0 7
      vertex -8.03239 -4.6375 7
    endloop
  endfacet
  facet normal 0 0 1
    outer loop
      vertex -3.6375 6.30033 7
      vertex 3.6375 6.30033 7
      vertex 4.6375 8.03239 7
    endloop
  endfacet
  facet normal 0 0 1
    outer loop
      vertex 0 9.275 7
      vertex -3.6375 6.30033 7
      vertex 4.6375 8.03239 7
    endloop
  endfacet
  facet normal 0 0 1
    outer loop
      vertex 0 9.275 7
      vertex -8.03239 4.6375 7
      vertex -3.6375 6.30033 7
    endloop
  endfacet
  facet normal 0 0 1
    outer loop
      vertex 4.6375 8.03239 7
      vertex 3.6375 6.30033 7
      vertex 8.03239 4.6375 7
    endloop
  endfacet
  facet normal 0 0 1
    outer loop
      vertex 3.6375 6.30033 7
      vertex 9.275 0 7
      vertex 8.03239 4.6375 7
    endloop
  endfacet
  facet normal 0 0 1
    outer loop
      vertex 9.275 0 7
      vertex 7.275 0 7
      vertex 8.03239 -4.6375 7
    endloop
  endfacet
  facet normal 0 0 1
    outer loop
      vertex 8.03239 -4.6375 7
      vertex 3.6375 -6.30033 7
      vertex 4.6375 -8.03239 7
    endloop
  endfacet
  facet normal 0 0 1
    outer loop
      vertex 3.6375 -6.30033 7
      vertex 0 -9.275 7
      vertex 4.6375 -8.03239 7
    endloop
  endfacet
  facet normal 0 0 1
    outer loop
      vertex 3.6375 -6.30033 7
      vertex -3.6375 -6.30033 7
      vertex 0 -9.275 7
    endloop
  endfacet
  facet normal 0 0 1
    outer loop
      vertex -7.275 0 7
      vertex -3.6375 6.30033 7
      vertex -8.03239 4.6375 7
    endloop
  endfacet
  facet normal 0.866025 0.5 0
    outer loop
      vertex -7.275 0 7
      vertex -3.6375 -6.30033 7
      vertex -3.6375 -6.30033 2
    endloop
  endfacet
  facet normal 0.866025 0.5 0
    outer loop
      vertex -7.275 0 2
      vertex -7.275 0 7
      vertex -3.6375 -6.30033 2
    endloop
  endfacet
  facet normal 0 1 0
    outer loop
      vertex 3.6375 -6.30033 7
      vertex 3.6375 -6.30033 2
      vertex -3.6375 -6.30033 7
    endloop
  endfacet
  facet normal 0 1 0
    outer loop
      vertex -3.6375 -6.30033 7
      vertex 3.6375 -6.30033 2
      vertex -3.6375 -6.30033 2
    endloop
  endfacet
  facet normal -0.866025 0.5 0
    outer loop
      vertex 7.275 0 7
      vertex 7.275 0 2
      vertex 3.6375 -6.30033 7
    endloop
  endfacet
  facet normal -0.866025 0.5 0
    outer loop
      vertex 3.6375 -6.30033 7
      vertex 7.275 0 2
      vertex 3.6375 -6.30033 2
    endloop
  endfacet
  facet normal -0.866025 -0.5 0
    outer loop
      vertex 7.275 0 7
      vertex 3.6375 6.30033 7
      vertex 7.275 0 2
    endloop
  endfacet
  facet normal -0.866025 -0.5 0
    outer loop
      vertex 7.275 0 2
      vertex 3.6375 6.30033 7
      vertex 3.6375 6.30033 2
    endloop
  endfacet
  facet normal 0 -1 0
    outer loop
      vertex 3.6375 6.30033 2
      vertex 3.6375 6.30033 7
      vertex -3.6375 6.30033 7
    endloop
  endfacet
  facet normal 0 -1 0
    outer loop
      vertex -3.6375 6.30033 2
      vertex 3.6375 6.30033 2
      vertex -3.6375 6.30033 7
    endloop
  endfacet
  facet normal 0.866025 -0.5 0
    outer loop
      vertex -3.6375 6.30033 2
      vertex -3.6375 6.30033 7
      vertex -7.275 0 7
    endloop
  endfacet
  facet normal 0.866025 -0.5 0
    outer loop
      vertex -7.275 0 2
      vertex -3.6375 6.30033 2
      vertex -7.275 0 7
    endloop
  endfacet
  facet normal 0 0 1
    outer loop
      vertex -3.6375 -6.30033 2
      vertex 3.6375 -6.30033 2
      vertex 7.275 0 2
    endloop
  endfacet
  facet normal 0 0 1
    outer loop
      vertex -3.6375 6.30033 2
      vertex -3.6375 -6.30033 2
      vertex 3.6375 6.30033 2
    endloop
  endfacet
  facet normal 0 0 1
    outer loop
      vertex 3.6375 6.30033 2
      vertex -3.6375 -6.30033 2
      vertex 7.275 0 2
    endloop
  endfacet
  facet normal 0 0 1
    outer loop
      vertex -7.275 0 2
      vertex -3.6375 -6.30033 2
      vertex -3.6375 6.30033 2
    endloop
  endfacet
endsolid OpenSCAD_Model
